<svg class="svg-icon" style="width: 1em; height: 1em;vertical-align: middle;fill: currentColor;overflow: hidden;" viewBox="0 0 1024 1024" version="1.1" xmlns="http://www.w3.org/2000/svg"><path d="M934 0C983.624 0 1024 40.376 1024 90v120c0 49.624-40.376 90-90 90h-92V784h90a30 30 0 0 1 30 30v120c0 49.624-40.376 90-90 90H272c-49.624 0-90-40.376-90-90V300h-92C40.376 300 0 259.624 0 210v-120C0 40.376 40.376 0 90 0h844zM512 422c49.624 0 90 40.376 90 90a91.496 91.496 0 0 1-60 85.936v36.064a30 30 0 0 1-60 0v-35.184c-15.608-5.104-30.672-14.304-44.184-27.392a30 30 0 1 1 41.752-43.088c14.36 13.904 29.64 18.448 43.04 12.768 11.6-4.912 19.392-16.608 19.392-29.104A30.032 30.032 0 0 0 512 482c-24.176 0-46.952-9.888-64.112-27.84-16.696-17.464-25.888-40.248-25.888-64.16 0-37.696 23.792-71.68 59.2-84.584l0.8-0.272V270a30 30 0 0 1 60 0v34.848c19.792 6.664 38.672 19.936 54.888 39.248a30 30 0 0 1-45.944 38.584c-15.864-18.88-33.8-26.496-49.208-20.88a30.104 30.104 0 0 0-19.736 28.2c0 17.04 14.016 32 30 32zM272 964h515.16a89.576 89.576 0 0 1-5.16-30V180h-540v754A30.032 30.032 0 0 0 272 964z m630-120h-60v90a30.032 30.032 0 0 0 30 30 30.032 30.032 0 0 0 30-30V844z m62-634v-120a30.032 30.032 0 0 0-30-30H90a30.032 30.032 0 0 0-30 30v120A30.032 30.032 0 0 0 90 240h92v-60h-32a30 30 0 0 1 0-60h724a30 30 0 0 1 0 60h-32V240h92a30.032 30.032 0 0 0 30-30z m-272 514a30 30 0 0 1 0 60h-360a30 30 0 0 1 0-60h360z m0 120a30 30 0 0 1 0 60h-360a30 30 0 0 1 0-60h360z" fill="#20A0FF" /></svg>